super_sign coordinate motion generated from LLM joint_angles
version=1
nRows=22
nColumns=29
inDegrees=yes
endheader
time	elbow_flexion	pro_sup	rotaxis_auxprfem_r3	deviation	auxprrud_auxdrfem_r3	auxdrfem_auxdrrud_r1	MCP2_lateral	MCP2_flex	PIP_flex	DIP_flex	MCP2M_lateral	MCP2M_flex	MPIP_flex	MDIP_flex	RCP2M_lateral	RCP2M_flex	RPIP_flex	RDIP_flex	LCP2M_lateral	LCP2M_flex	LPIP_flex	LDIP_flex	thumb_abd	thumb_flex	TCP2M_lateral	TCP2M_flex	TCP2M2_flex	flexion
0.000000	0.000000	0.000000	0.000000	0.000000	0.000000	0.000000	0.000000	0.000000	0.000000	0.000000	0.000000	0.000000	0.000000	0.000000	0.000000	0.000000	0.000000	0.000000	0.000000	0.000000	0.000000	0.000000	0.000000	0.000000	0.000000	0.000000	0.000000	0.000000
0.006667	0.000000	0.000000	0.000000	0.000000	0.000000	0.000000	0.000000	0.000000	0.000000	0.000000	0.000000	1.884818	1.884818	1.884818	0.000000	1.884818	1.884818	1.884818	0.000000	0.000000	0.000000	0.000000	0.000000	0.000000	0.000000	0.209424	0.209424	0.000000
0.013333	0.000000	0.000000	0.000000	0.000000	0.000000	0.000000	0.000000	0.000000	0.000000	0.000000	0.000000	3.768809	3.768809	3.768809	0.000000	3.768809	3.768809	3.768809	0.000000	0.000000	0.000000	0.000000	0.000000	0.000000	0.000000	0.418757	0.418757	0.000000
0.020000	0.000000	0.000000	0.000000	0.000000	0.000000	0.000000	0.000000	0.000000	0.000000	0.000000	0.000000	5.651147	5.651147	5.651147	0.000000	5.651147	5.651147	5.651147	0.000000	0.000000	0.000000	0.000000	0.000000	0.000000	0.000000	0.627905	0.627905	0.000000
0.026667	0.000000	0.000000	0.000000	0.000000	0.000000	0.000000	0.000000	0.000000	0.000000	0.000000	0.000000	7.531006	7.531006	7.531006	0.000000	7.531006	7.531006	7.531006	0.000000	0.000000	0.000000	0.000000	0.000000	0.000000	0.000000	0.836778	0.836778	0.000000
0.033333	0.000000	0.000000	0.000000	0.000000	0.000000	0.000000	0.000000	0.000000	0.000000	0.000000	0.000000	9.407562	9.407562	9.407562	0.000000	9.407562	9.407562	9.407562	0.000000	0.000000	0.000000	0.000000	0.000000	0.000000	0.000000	1.045285	1.045285	0.000000
0.040000	0.000000	0.000000	0.000000	0.000000	0.000000	0.000000	0.000000	0.000000	0.000000	0.000000	0.000000	11.279991	11.279991	11.279991	0.000000	11.279991	11.279991	11.279991	0.000000	0.000000	0.000000	0.000000	0.000000	0.000000	0.000000	1.253332	1.253332	0.000000
0.046667	0.000000	0.000000	0.000000	0.000000	0.000000	0.000000	0.000000	0.000000	0.000000	0.000000	0.000000	13.147473	13.147473	13.147473	0.000000	13.147473	13.147473	13.147473	0.000000	0.000000	0.000000	0.000000	0.000000	0.000000	0.000000	1.460830	1.460830	0.000000
0.053333	0.000000	0.000000	0.000000	0.000000	0.000000	0.000000	0.000000	0.000000	0.000000	0.000000	0.000000	15.009187	15.009187	15.009187	0.000000	15.009187	15.009187	15.009187	0.000000	0.000000	0.000000	0.000000	0.000000	0.000000	0.000000	1.667687	1.667687	0.000000
0.060000	0.000000	0.000000	0.000000	0.000000	0.000000	0.000000	0.000000	0.000000	0.000000	0.000000	0.000000	16.864318	16.864318	16.864318	0.000000	16.864318	16.864318	16.864318	0.000000	0.000000	0.000000	0.000000	0.000000	0.000000	0.000000	1.873813	1.873813	0.000000
0.066667	0.000000	0.000000	0.000000	0.000000	0.000000	0.000000	0.000000	0.000000	0.000000	0.000000	0.000000	18.712052	18.712052	18.712052	0.000000	18.712052	18.712052	18.712052	0.000000	0.000000	0.000000	0.000000	0.000000	0.000000	0.000000	2.079117	2.079117	0.000000
0.073333	0.000000	0.000000	0.000000	0.000000	0.000000	0.000000	0.000000	0.000000	0.000000	0.000000	0.000000	20.551578	20.551578	20.551578	0.000000	20.551578	20.551578	20.551578	0.000000	0.000000	0.000000	0.000000	0.000000	0.000000	0.000000	2.283509	2.283509	0.000000
0.080000	0.000000	0.000000	0.000000	0.000000	0.000000	0.000000	0.000000	0.000000	0.000000	0.000000	0.000000	22.382090	22.382090	22.382090	0.000000	22.382090	22.382090	22.382090	0.000000	0.000000	0.000000	0.000000	0.000000	0.000000	0.000000	2.486899	2.486899	0.000000
0.086667	0.000000	0.000000	0.000000	0.000000	0.000000	0.000000	0.000000	0.000000	0.000000	0.000000	0.000000	24.202784	24.202784	24.202784	0.000000	24.202784	24.202784	24.202784	0.000000	0.000000	0.000000	0.000000	0.000000	0.000000	0.000000	2.689198	2.689198	0.000000
0.093333	0.000000	0.000000	0.000000	0.000000	0.000000	0.000000	0.000000	0.000000	0.000000	0.000000	0.000000	26.012862	26.012862	26.012862	0.000000	26.012862	26.012862	26.012862	0.000000	0.000000	0.000000	0.000000	0.000000	0.000000	0.000000	2.890318	2.890318	0.000000
0.100000	0.000000	0.000000	0.000000	0.000000	0.000000	0.000000	0.000000	0.000000	0.000000	0.000000	0.000000	27.811529	27.811529	27.811529	0.000000	27.811529	27.811529	27.811529	0.000000	0.000000	0.000000	0.000000	0.000000	0.000000	0.000000	3.090170	3.090170	0.000000
0.106667	0.000000	0.000000	0.000000	0.000000	0.000000	0.000000	0.000000	0.000000	0.000000	0.000000	0.000000	29.597998	29.597998	29.597998	0.000000	29.597998	29.597998	29.597998	0.000000	0.000000	0.000000	0.000000	0.000000	0.000000	0.000000	3.288666	3.288666	0.000000
0.113333	0.000000	0.000000	0.000000	0.000000	0.000000	0.000000	0.000000	0.000000	0.000000	0.000000	0.000000	31.371484	31.371484	31.371484	0.000000	31.371484	31.371484	31.371484	0.000000	0.000000	0.000000	0.000000	0.000000	0.000000	0.000000	3.485720	3.485720	0.000000
0.120000	0.000000	0.000000	0.000000	0.000000	0.000000	0.000000	0.000000	0.000000	0.000000	0.000000	0.000000	33.131210	33.131210	33.131210	0.000000	33.131210	33.131210	33.131210	0.000000	0.000000	0.000000	0.000000	0.000000	0.000000	0.000000	3.681246	3.681246	0.000000
0.126667	0.000000	0.000000	0.000000	0.000000	0.000000	0.000000	0.000000	0.000000	0.000000	0.000000	0.000000	34.876403	34.876403	34.876403	0.000000	34.876403	34.876403	34.876403	0.000000	0.000000	0.000000	0.000000	0.000000	0.000000	0.000000	3.875156	3.875156	0.000000
0.133333	0.000000	0.000000	0.000000	0.000000	0.000000	0.000000	0.000000	0.000000	0.000000	0.000000	0.000000	36.606298	36.606298	36.606298	0.000000	36.606298	36.606298	36.606298	0.000000	0.000000	0.000000	0.000000	0.000000	0.000000	0.000000	4.067366	4.067366	0.000000
0.140000	0.000000	0.000000	0.000000	0.000000	0.000000	0.000000	0.000000	0.000000	0.000000	0.000000	0.000000	38.320136	38.320136	38.320136	0.000000	38.320136	38.320136	38.320136	0.000000	0.000000	0.000000	0.000000	0.000000	0.000000	0.000000	4.257793	4.257793	0.000000
